# xmcd
#
# Track frame offsets: 
#        150
#        14869
#        31125
#        47201
#        62367
#        80268
#        96321
#        113244
#        126671
#        143206
#        158197
#        174357
#        188628
#        201072
#        215320
#        230583
#        244944
#        260447
#        276047
#        290429
#        308465
#
# Disc length: 4316 seconds
#
# Revision: 0
# Processed by: cddbd v1.5.2PL0 Copyright (c) Steve Scherf et al.
# Submitted via: ExactAudioCopy v0.99pb4
#
DISCID=2c10da15
DTITLE=Various Artist - Hits Van Hier - Het Beste Van 2015 - CD1
DYEAR=2015
DGENRE=Pop-Folk
TTITLE0=Lissa Lewis - Wat Ik Voor Je Voel
TTITLE1=Luc Steeno - De Zomer Van Je Leven
TTITLE2=Jo Vally and Noa Neal - De Kracht Van De Liefde
TTITLE3=John Terra - Neem Me Mee
TTITLE4=De Romeo's - Vrienden Voor Het Leven
TTITLE5=The Championettes - De Kampioenenjubilee
TTITLE6=Swoop - Lekkerbekje
TTITLE7=Garry Hagger - Piranha
TTITLE8=Fadim - Ik Ga De Nacht In
TTITLE9=Nicole and Hugo - We Gaan Nog Even Door
TTITLE10=Frank Galan - Cheerio
TTITLE11=Steve Tielens and Marc Coucke - Het Is Weer Couckenbak
TTITLE12=Yves Segers - Zwaai Eens Even Naar Mijn Vogeltje
TTITLE13=De Stoempers - Tsjakkiediekkie Boem Boem
TTITLE14=Herbert - Déjà Vu
TTITLE15=Danny Fabry - Duizend Keer
TTITLE16=Sammy Baker - Jessica
TTITLE17=Dennie Damaro - Lieve Moeder
TTITLE18=Salim Seghers and Bandit - Hey Will
TTITLE19=Lisa Del Bo - Een Parel Als Jij
TTITLE20=Barbara Dex - Falling In Love
EXTD=
EXTT0=
EXTT1=
EXTT2=
EXTT3=
EXTT4=
EXTT5=
EXTT6=
EXTT7=
EXTT8=
EXTT9=
EXTT10=
EXTT11=
EXTT12=
EXTT13=
EXTT14=
EXTT15=
EXTT16=
EXTT17=
EXTT18=
EXTT19=
EXTT20=
PLAYORDER=
